<?xml version="1.0" encoding="utf-8"?>
<!-- Uploaded to: SVG Repo, www.svgrepo.com, Generator: SVG Repo Mixer Tools -->
<svg width="800px" height="800px" viewBox="0 0 1024 1024" class="icon"  version="1.1" xmlns="http://www.w3.org/2000/svg"><path d="M548.864 280.576h61.44v61.44h-61.44z" fill="#009944" /><path d="M608.256 221.184h61.44v61.44h-61.44zM366.592 221.184h61.44v61.44h-61.44zM489.472 280.576h61.44v61.44h-61.44zM428.032 280.576h61.44v61.44h-61.44z" fill="#009944" /><path d="M489.472 221.184h61.44v61.44h-61.44z" fill="#009944" /><path d="M428.01152 403.1488v-61.44h61.44v61.44z" fill="#E60012" /><path d="M367.28832 403.8656v-61.44h61.44v61.44zM489.472 342.016h61.44v61.44h-61.44z" fill="#E60012" /><path d="M548.864 342.016h61.44v61.44h-61.44z" fill="#E60012" /><path d="M610.304 342.016h61.44v61.44h-61.44zM245.76 524.288h61.44v61.44h-61.44zM245.76 462.848h61.44v61.44h-61.44zM307.2 403.456h61.44v61.44h-61.44z" fill="#E60012" /><path d="M366.592 403.456h61.44v61.44h-61.44z" fill="#E60012" /><path d="M307.2 462.848h61.44v61.44h-61.44z" fill="#E60012" /><path d="M366.592 462.848h61.44v61.44h-61.44zM428.032 403.456h61.44v61.44h-61.44zM489.472 403.456h61.44v61.44h-61.44z" fill="#E60012" /><path d="M428.032 462.848h61.44v61.44h-61.44zM489.472 462.848h61.44v61.44h-61.44z" fill="#E60012" /><path d="M548.864 403.456h61.44v61.44h-61.44z" fill="#E60012" /><path d="M610.304 403.456h61.44v61.44h-61.44z" fill="#E60012" /><path d="M548.864 462.848h61.44v61.44h-61.44z" fill="#E60012" /><path d="M610.304 462.848h61.44v61.44h-61.44zM245.76 585.728h61.44v61.44h-61.44z" fill="#E60012" /><path d="M245.76 645.12h61.44v61.44h-61.44zM307.2 524.288h61.44v61.44h-61.44z" fill="#E60012" /><path d="M366.592 524.288h61.44v61.44h-61.44zM307.2 585.728h61.44v61.44h-61.44z" fill="#E60012" /><path d="M366.592 585.728h61.44v61.44h-61.44zM428.032 524.288h61.44v61.44h-61.44zM489.472 524.288h61.44v61.44h-61.44zM428.032 585.728h61.44v61.44h-61.44zM489.472 585.728h61.44v61.44h-61.44z" fill="#E60012" /><path d="M548.864 524.288h61.44v61.44h-61.44z" fill="#E60012" /><path d="M610.304 524.288h61.44v61.44h-61.44zM548.864 585.728h61.44v61.44h-61.44z" fill="#E60012" /><path d="M610.304 585.728h61.44v61.44h-61.44zM671.744 403.456h61.44v61.44h-61.44z" fill="#E60012" /><path d="M671.744 462.848h61.44v61.44h-61.44zM731.136 524.288h61.44v61.44h-61.44z" fill="#E60012" /><path d="M731.136 462.848h61.44v61.44h-61.44zM671.744 524.288h61.44v61.44h-61.44zM731.136 585.728h61.44v61.44h-61.44z" fill="#E60012" /><path d="M671.744 585.728h61.44v61.44h-61.44z" fill="#E60012" /><path d="M731.136 645.12h61.44v61.44h-61.44zM307.2 645.12h61.44v61.44h-61.44z" fill="#E60012" /><path d="M366.592 645.12h61.44v61.44h-61.44zM366.592 706.56h61.44v61.44h-61.44z" fill="#E60012" /><path d="M307.2 706.56h61.44v61.44h-61.44zM428.032 645.12h61.44v61.44h-61.44zM489.472 645.12h61.44v61.44h-61.44zM428.032 706.56h61.44v61.44h-61.44zM489.472 706.56h61.44v61.44h-61.44z" fill="#E60012" /><path d="M548.864 645.12h61.44v61.44h-61.44z" fill="#E60012" /><path d="M610.304 645.12h61.44v61.44h-61.44zM548.864 706.56h61.44v61.44h-61.44z" fill="#E60012" /><path d="M610.304 706.56h61.44v61.44h-61.44zM366.592 768h61.44v61.44h-61.44zM610.304 768h61.44v61.44h-61.44zM671.744 645.12h61.44v61.44h-61.44zM671.744 706.56h61.44v61.44h-61.44zM428.032 768h61.44v61.44h-61.44zM489.472 768h61.44v61.44h-61.44z" fill="#E60012" /><path d="M548.864 768h61.44v61.44h-61.44z" fill="#E60012" /></svg>