<svg width="40" height="40" viewBox="0 0 40 40" fill="none" xmlns="http://www.w3.org/2000/svg">
<path d="M21.44 10.96H23.84V13.36H21.44V10.96Z" fill="#009944"/>
<path d="M23.76 8.64001H26.16V11.04H23.76V8.64001ZM14.32 8.64001H16.72V11.04H14.32V8.64001ZM19.12 10.96H21.52V13.36H19.12V10.96ZM16.72 10.96H19.12V13.36H16.72V10.96Z" fill="#009944"/>
<path d="M19.12 8.64001H21.52V11.04H19.12V8.64001Z" fill="#009944"/>
<path d="M16.7192 15.748V13.348H19.1192V15.748H16.7192Z" fill="#E60012"/>
<path d="M14.3472 15.776V13.376H16.7472V15.776H14.3472ZM19.12 13.36H21.52V15.76H19.12V13.36Z" fill="#E60012"/>
<path d="M21.44 13.36H23.84V15.76H21.44V13.36Z" fill="#E60012"/>
<path d="M23.84 13.36H26.24V15.76H23.84V13.36ZM9.60001 20.48H12V22.88H9.60001V20.48ZM9.60001 18.08H12V20.48H9.60001V18.08ZM12 15.76H14.4V18.16H12V15.76Z" fill="#E60012"/>
<path d="M14.32 15.76H16.72V18.16H14.32V15.76Z" fill="#E60012"/>
<path d="M12 18.08H14.4V20.48H12V18.08Z" fill="#E60012"/>
<path d="M14.32 18.08H16.72V20.48H14.32V18.08ZM16.72 15.76H19.12V18.16H16.72V15.76ZM19.12 15.76H21.52V18.16H19.12V15.76Z" fill="#E60012"/>
<path d="M16.72 18.08H19.12V20.48H16.72V18.08ZM19.12 18.08H21.52V20.48H19.12V18.08Z" fill="#E60012"/>
<path d="M21.44 15.76H23.84V18.16H21.44V15.76Z" fill="#E60012"/>
<path d="M23.84 15.76H26.24V18.16H23.84V15.76Z" fill="#E60012"/>
<path d="M21.44 18.08H23.84V20.48H21.44V18.08Z" fill="#E60012"/>
<path d="M23.84 18.08H26.24V20.48H23.84V18.08ZM9.60001 22.88H12V25.28H9.60001V22.88Z" fill="#E60012"/>
<path d="M9.60001 25.2H12V27.6H9.60001V25.2ZM12 20.48H14.4V22.88H12V20.48Z" fill="#E60012"/>
<path d="M14.32 20.48H16.72V22.88H14.32V20.48ZM12 22.88H14.4V25.28H12V22.88Z" fill="#E60012"/>
<path d="M14.32 22.88H16.72V25.28H14.32V22.88ZM16.72 20.48H19.12V22.88H16.72V20.48ZM19.12 20.48H21.52V22.88H19.12V20.48ZM16.72 22.88H19.12V25.28H16.72V22.88ZM19.12 22.88H21.52V25.28H19.12V22.88Z" fill="#E60012"/>
<path d="M21.44 20.48H23.84V22.88H21.44V20.48Z" fill="#E60012"/>
<path d="M23.84 20.48H26.24V22.88H23.84V20.48ZM21.44 22.88H23.84V25.28H21.44V22.88Z" fill="#E60012"/>
<path d="M23.84 22.88H26.24V25.28H23.84V22.88ZM26.24 15.76H28.64V18.16H26.24V15.76Z" fill="#E60012"/>
<path d="M26.24 18.08H28.64V20.48H26.24V18.08ZM28.56 20.48H30.96V22.88H28.56V20.48Z" fill="#E60012"/>
<path d="M28.56 18.08H30.96V20.48H28.56V18.08ZM26.24 20.48H28.64V22.88H26.24V20.48ZM28.56 22.88H30.96V25.28H28.56V22.88Z" fill="#E60012"/>
<path d="M26.24 22.88H28.64V25.28H26.24V22.88Z" fill="#E60012"/>
<path d="M28.56 25.2H30.96V27.6H28.56V25.2ZM12 25.2H14.4V27.6H12V25.2Z" fill="#E60012"/>
<path d="M14.32 25.2H16.72V27.6H14.32V25.2ZM14.32 27.6H16.72V30H14.32V27.6Z" fill="#E60012"/>
<path d="M12 27.6H14.4V30H12V27.6ZM16.72 25.2H19.12V27.6H16.72V25.2ZM19.12 25.2H21.52V27.6H19.12V25.2ZM16.72 27.6H19.12V30H16.72V27.6ZM19.12 27.6H21.52V30H19.12V27.6Z" fill="#E60012"/>
<path d="M21.44 25.2H23.84V27.6H21.44V25.2Z" fill="#E60012"/>
<path d="M23.84 25.2H26.24V27.6H23.84V25.2ZM21.44 27.6H23.84V30H21.44V27.6Z" fill="#E60012"/>
<path d="M23.84 27.6H26.24V30H23.84V27.6ZM14.32 30H16.72V32.4H14.32V30ZM23.84 30H26.24V32.4H23.84V30ZM26.24 25.2H28.64V27.6H26.24V25.2ZM26.24 27.6H28.64V30H26.24V27.6ZM16.72 30H19.12V32.4H16.72V30ZM19.12 30H21.52V32.4H19.12V30Z" fill="#E60012"/>
<path d="M21.44 30H23.84V32.4H21.44V30Z" fill="#E60012"/>
</svg>
